<svg width="74" height="45" viewBox="0 0 74 45" fill="none" xmlns="http://www.w3.org/2000/svg">
<path d="M7.09719 28.63L19.2443 23.6818V27.9983L11.1462 31.4726V37.3684L7.09719 38.9476V28.63ZM16.3674 4.52058C22.6541 4.52058 27.8752 9.36352 27.8752 15.891V28.8406C27.6621 33.9994 32.0308 38.1053 37.2519 38.1053C42.3665 38.1053 46.4156 33.8941 46.4156 28.8406V14.417L42.3665 15.9963V28.7353C42.3665 31.5779 40.0223 33.7888 37.1454 33.7888C34.375 33.7888 31.9242 31.4726 31.9242 28.7353V15.891C32.0308 7.2579 24.9982 0.309326 16.3674 0.309326C7.62996 0.309326 0.490845 7.2579 0.490845 15.891V41.1585L4.85955 39.5793V15.891C4.85955 9.57409 9.97414 4.52058 16.3674 4.52058ZM58.2431 38.1053C63.4642 38.1053 67.6198 33.8941 67.6198 28.8406V6.20508L63.5708 7.7843V28.8406C63.5708 31.5779 61.0135 33.8941 58.1365 33.8941C55.2596 33.8941 52.9154 31.5779 52.9154 28.8406V12.1008L48.5467 13.6801V28.8406C48.6532 33.8941 52.9154 38.1053 58.2431 38.1053ZM69.8574 5.46811V28.8406C69.8574 35.1575 64.6363 40.3162 58.2431 40.3162C53.5547 40.3162 49.2925 37.4737 47.4811 33.5782C45.6697 37.4737 41.8338 40.3162 37.2519 40.3162C30.9653 40.3162 25.8507 35.1575 25.8507 28.8406V15.891C25.8507 10.7322 21.5885 6.62621 16.3674 6.62621C11.2528 6.62621 7.09719 10.8375 7.09719 15.891V26.1033L19.2443 21.155V16.8385L11.1462 20.4181V15.891C11.1462 13.0484 13.4904 10.8375 16.3674 10.8375C19.0312 10.8375 21.5885 13.0484 21.5885 15.891C21.6951 15.9963 21.5885 28.8406 21.5885 28.8406C21.5885 37.3684 28.5145 44.5275 37.1454 44.5275C41.1944 44.5275 44.7107 42.7377 47.4811 40.3162C50.2515 42.7377 54.0875 44.5275 58.1365 44.5275C66.8739 44.5275 73.7999 37.3684 73.7999 28.8406V3.88889L69.8574 5.46811Z" fill="#000002"/>
</svg>
